<svg version="1.0" id="katman_1" xmlns="http://www.w3.org/2000/svg" xmlns:xlink="http://www.w3.org/1999/xlink" x="0px" y="0px"
	 viewBox="0 0 600 450" style="enable-background:new 0 0 600 450;" xml:space="preserve">
<style type="text/css">
	.st0{clip-path:url(#SVGID_00000176764198371859571180000008376036202908106417_);}
	.st1{fill:#0285C6;}
	.st2{fill:#2A2559;}
	.st3{fill:#025198;}
	.st4{fill-rule:evenodd;clip-rule:evenodd;fill:#1D2C4E;}
</style>
<g>
	<defs>
		<rect id="SVGID_1_" x="58.2" y="149.7" width="483" height="151.4"/>
	</defs>
	<clipPath id="SVGID_00000105396496560482756870000009935844744680704923_">
		<use xlink:href="#SVGID_1_"  style="overflow:visible;"/>
	</clipPath>
	<g style="clip-path:url(#SVGID_00000105396496560482756870000009935844744680704923_);">
		<path class="st1" d="M136.5,276.2c0,0,2.6,2.4,2.1,3.8c-1.1,3.2-6.1,4.6-9.4,3.8c-5.2-1.4-9.9-7.4-9.9-12.7
			c0.1-7.9,8.1-14.3,14.8-18.4c6.9-4.3,15.6-5.5,23.7-5.3c8.8,0.1,18.3,1.8,25.6,6.6c4.1,2.7,7.5,6.9,9.1,11.6c0.9,2.6,0,8.4,0,8.4
			s7.3-10,9.9-15.6c3.1-6.6,7.7-13.6,6.8-20.9c-0.4-3.3-2.6-6.6-5.3-8.5c-8.7-6.3-20.6-7.4-31.3-7.8c-11.1-0.4-22.4,2-32.9,5.9
			c-7.1,2.6-14.1,6.4-19.6,11.6c-6.2,5.9-12.1,13-14.2,21.3c-1.4,5.4-1.1,11.6,1.5,16.5c2.3,4.4,7,7.6,11.6,9.5
			c4.5,1.8,10,2.6,14.6,1.1c3.1-1,7.3-3,7.4-6.3C141.4,276,136.5,276.2,136.5,276.2L136.5,276.2z"/>
		<path class="st2" d="M134.7,280.7c0,0-3.7-0.7-4.6-2.1c-1.4-2-1.3-4.8,0.1-6.8c2.2-3.3,7-4.6,11-4.7c6.7-0.3,15,1.2,19.2,6.5
			c3.5,4.4,4.2,11.8,1.7,16.8c-2.6,5-9.2,7-14.6,8.6c-8.5,2.5-17.7,2.7-26.5,1.3c-9-1.4-17.8-4.9-25.6-9.7
			c-8.6-5.2-16.5-12.1-22.4-20.2c-6.4-8.7-11.1-18.9-13.3-29.5c-2-9.5-1.7-19.7,0.2-29.3c2.2-10.8,6.5-21.1,12.7-30.3
			c4.7-7,11-13,17.9-17.9c6.2-4.4,13.3-7.5,20.4-9.9c5.8-2,11.9-3.3,18.1-3.7c7.6-0.4,15.4,0.5,22.8,2.2c6.2,1.4,12.4,3.5,18.1,6.5
			c6.7,3.5,18.3,13.3,18.3,13.3s-23.6-2.3-35.1-0.2c-13.6,2.4-27,7.3-38.7,14.4c-8.8,5.3-16.5,12.6-22.8,20.7
			c-5.1,6.5-9.1,13.9-11.6,21.7c-2.6,7.9-3.9,16.4-3.4,24.7c0.3,5.6,1.8,11.3,4.3,16.4c2.5,5,6.1,9.6,10.3,13.3
			c5.5,4.8,11.8,8.5,18.7,11c5.5,2,11.6,2.7,17.4,2.6c5-0.1,10.4-0.3,14.8-2.6c3.7-1.9,7.8-4.8,9-8.8c1-3.3,0.4-7.5-1.8-10.1
			c-2.2-2.6-6.2-3.2-9.6-3.2c-2.5,0-5.3,0.7-7.1,2.4c-1,1-1.5,2.2-1.2,3.5C131.8,278.9,134.8,280.7,134.7,280.7L134.7,280.7z"/>
		<path class="st3" d="M133.9,279c0,0-0.7-2.1-0.1-2.9c1-1.2,3.1-1.6,4.6-1c2.1,0.8,4,3.2,4,5.5c0,2.9-2.5,5.7-5.1,7
			c-5.6,2.9-13,2.1-19,0c-5.1-1.7-10.1-5.2-12.7-9.9c-3.9-6.8-4.8-15.6-3-23.2c1.8-7.8,7.6-14.3,13.1-19.9
			c6-6.1,13.2-11.3,21.1-14.6c9-3.8,19.1-4.8,28.9-5.5c8.4-0.6,17-0.4,25.3,1.1c5.2,1,10.5,2.4,15,5.1c1.8,1.1,4.6,4.2,4.6,4.2
			s-1.2-16-3.7-23.6c-2.1-6.6-4.3-13.7-9.3-18.4c-3.5-3.4-8.5-5-13.3-6.1c-9-1.9-18.6-1.5-27.7,0.2c-10.6,1.9-20.9,6.1-30.4,11.2
			c-8.9,4.8-17.3,10.8-24.5,17.9c-5.9,5.8-11.4,12.4-14.8,19.9c-3.4,7.6-5.2,16.2-5.1,24.5c0,6.7,1.4,13.6,4.4,19.6
			c2.8,5.6,7.2,10.4,12,14.4c4.2,3.5,9.1,6.2,14.2,8c4.8,1.7,10.1,2.6,15.2,2.3c6-0.3,12.8-0.8,17.4-4.7c2.7-2.3,4.6-6.1,4.3-9.6
			c-0.2-2.4-1.9-4.9-4-6.2c-2.3-1.4-5.4-2.3-8-1.6c-2.4,0.6-4.4,1.9-4.7,3.9C132.2,277.7,134,279,133.9,279L133.9,279z"/>
		<path class="st4" d="M302,203.3c-5.8,1.5-8.6,3-11.7,6.6c-3.9,4.5-5.5,9.5-5.2,16.9c0.2,5.2,0.5,6.5,2.4,10.3
			c2.2,4.5,5,7.4,9.1,9.2c0.7,0.3,1.6,0.7,2,0.9c0.4,0.2,1.3,0.4,2,0.4c0.7,0,1.4,0.2,1.5,0.4c0.1,0.2,2.2,0.4,4.6,0.4
			c2.5,0,4.5-0.2,4.6-0.4c0.1-0.2,1-0.4,1.9-0.4c0.9,0,1.7-0.2,1.9-0.4c0.1-0.2,0.5-0.4,0.9-0.4c1.3,0,5.2-2.3,7.2-4.3
			c2.4-2.3,3.8-4.6,5.1-8.4c1.6-4.5,1.3-16.4-0.5-18.5c-0.2-0.2-0.3-0.7-0.4-1c0-1.2-4.2-6.2-6.4-7.6
			C315.9,203.5,307.4,201.9,302,203.3z M513.4,203.3c-5.6,1.4-8.5,2.9-11.6,6.4c-3.8,4.2-5.3,8.8-5.4,15.9c0,7,1.8,12.1,6,16.5
			c1.8,2,5.7,4.6,6.8,4.6c0.3,0,0.7,0.2,0.9,0.4c0.1,0.2,0.9,0.4,1.7,0.4s1.5,0.2,1.7,0.4c0.1,0.2,2.2,0.4,4.6,0.4
			c2.5,0,4.5-0.2,4.6-0.4c0.1-0.2,1-0.4,1.9-0.4s1.7-0.2,1.9-0.4c0.1-0.2,0.6-0.4,1.1-0.4c2.3,0,8.3-4.8,10.3-8.3
			c1.5-2.7,2.7-6.4,2.7-8.3c0-0.9,0.2-1.9,0.5-2.1c0.9-0.9-0.7-11.9-1.8-12.5c-0.2-0.1-0.4-0.5-0.4-0.9c0-1.3-3.7-5.8-6.1-7.5
			c-2.8-2-5.4-2.9-9.8-3.8C519,202.5,516.7,202.5,513.4,203.3z M244.5,204c-0.1,0.3-0.2,10.2-0.1,21.9l0.1,21.4l6.9,0.2l0-12
			l3.5-4.1c1.9-2.2,3.6-4.1,3.7-4.1c0.1,0,1.3,1.3,2.5,3c1.2,1.7,2.5,3.3,2.8,3.7c0.3,0.3,2.6,3.5,5.2,7l4.7,6.4h3.7
			c3.2,0,3.7-0.1,3.5-0.7c-0.1-0.4-1.8-2.8-3.7-5.4c-1.9-2.6-4.5-6-5.6-7.6c-1.2-1.6-3.5-4.7-5.1-6.9c-1.6-2.2-3-4.1-3-4.3
			c0-0.2,1.7-2.3,3.9-4.9c2.1-2.5,5.5-6.5,7.4-8.9c1.9-2.4,3.7-4.3,3.9-4.3c0.2,0,0.4-0.3,0.4-0.6c0-0.5-0.7-0.6-3.7-0.6h-3.7
			l-2.1,2.7c-1.2,1.5-2.5,3.1-3.1,3.7c-0.5,0.6-2.5,2.9-4.3,5.1c-1.8,2.3-4.3,5.3-5.6,6.7c-1.2,1.4-2.6,3.2-3.1,3.9
			c-1.9,2.7-2,2.2-2-10.1c0-10.1-0.1-11.5-0.7-11.8C249.5,203.2,244.7,203.4,244.5,204z M343.1,204c-0.1,0.3-0.3,1.1-0.4,1.8
			c-0.1,0.7-0.5,2-0.7,2.9c-0.2,0.9-0.6,2.5-0.8,3.5c-0.2,1-0.6,2.6-0.8,3.6c-0.2,1-0.6,2.5-0.8,3.5c-0.2,0.9-0.8,3.5-1.3,5.7
			c-0.5,2.2-1.2,5.3-1.5,6.9c-0.4,1.6-0.8,3.7-1,4.6c-0.5,2.5-2.1,9.1-2.4,10.2c-0.3,0.9-0.2,0.9,3.1,0.9c3.2,0,3.4-0.1,3.6-0.9
			c0.6-2.8,0.7-3.6,1.1-5.1c0.2-0.9,0.6-2.6,0.8-3.8c0.2-1.2,0.6-2.9,0.8-3.8c0.2-0.9,0.9-4.1,1.5-7.1c1.1-5.6,1.7-7.3,2.3-6.7
			c0.2,0.2,0.8,1.6,1.4,3.1c1.5,3.8,3.6,8.9,4,9.9c0.2,0.5,0.8,1.7,1.3,2.8c0.5,1.1,0.9,2.1,0.9,2.2c0,0.1,0.4,1.1,0.8,2.1
			c0.8,1.9,1.9,4.2,3,6.8c1.1,2.5,1.7,1.9,3.7-3.3c0.8-2,1.5-3.7,1.7-4c0.2-0.2,0.4-0.6,0.4-0.9c0-0.3,0.5-1.7,1.2-3.2
			c0.7-1.4,1.4-3.3,1.7-4.1c0.3-0.8,0.7-1.6,0.9-1.9s0.4-0.6,0.4-0.9c0-0.3,0.4-1.4,0.8-2.3c0.4-1,1.2-2.9,1.8-4.2
			c0.5-1.3,1.1-2.4,1.3-2.4c0.4,0,0.8,1.1,1.3,3.6c0.2,1.2,0.6,2.8,0.8,3.6c0.2,0.8,1.1,5,2.1,9.2c1,4.3,1.9,8.6,2.2,9.5l0.5,1.8h3
			c1.7,0,3.1-0.1,3.2-0.2c0.1-0.1-0.6-3.5-1.6-7.4c-1-4-2-8-2.2-8.8c-0.2-0.9-0.6-2.3-0.8-3.1c-0.2-0.9-0.6-2.4-0.9-3.5
			c-0.3-1-0.6-2.6-0.9-3.6c-0.2-0.9-0.6-2.4-0.8-3.4c-0.2-0.9-0.6-2.3-0.8-3.1c-0.4-1.4-0.7-2.8-1.6-6.6c-0.9-3.9-1.1-4.1-2.5-4.2
			c-1.5-0.1-1.4-0.3-3.9,6.4c-0.5,1.4-1.1,2.9-1.3,3.4c-0.2,0.5-0.6,1.5-0.8,2.3c-0.3,0.8-0.7,1.9-0.9,2.5c-0.4,1-0.9,2.1-1.6,4
			c-0.2,0.5-0.7,2-1.2,3.4c-0.8,2.5-1.9,5.4-2.6,7.1c-0.2,0.5-0.5,1.2-0.6,1.6c-0.5,1.7-1.5,0.2-3.6-5.4c-0.5-1.2-1.1-2.7-2.1-4.9
			c-0.5-1.1-0.9-2.2-0.9-2.5c0-0.3-0.2-0.7-0.4-0.9c-0.2-0.2-1.7-3.9-3.4-8.2c-1.7-4.3-3.2-8-3.5-8.3c-0.2-0.3-1-0.5-1.6-0.5
			C343.8,203.4,343.2,203.7,343.1,204z M392.5,203.7c-0.4,0.2-0.5,5-0.5,22v21.8l6.9-0.2v-43.7l-2.9-0.1
			C394.3,203.5,392.8,203.6,392.5,203.7z M412.4,203.7c-0.2,0.2-0.3,10.1-0.3,22v21.8h6.3V232c0-8.5,0.2-15.5,0.4-15.5
			c0.2,0,1,0.7,1.8,1.6c4.6,5.1,3.4,3.8,15.3,17.7c10.7,12.5,10.8,12.6,11.7,12.5c0.8-0.1,0.8-0.4,0.8-22.4v-22.2h-6.3l-0.4,30.2
			l-1.1-1c-0.6-0.6-2.6-2.7-4.4-4.8c-1.8-2.1-3.7-4.2-4.2-4.6c-0.5-0.5-1.8-2-2.9-3.3c-1.2-1.4-2.5-2.8-3-3.3
			c-0.5-0.5-3.2-3.5-6.1-6.8c-2.8-3.2-5.4-6-5.6-6.2C413.9,203.4,412.8,203.4,412.4,203.7z M460.2,203.7c-0.2,0.2-0.3,10.1-0.3,22.1
			v21.8l6.9-0.2l0.2-20.8l18.7-0.2l0.3-4.8h-18.9v-6c0-5.1,0.1-6.1,0.7-6.3c0.4-0.1,6.1-0.3,12.8-0.3h12.2l-0.2-5.2l-16-0.1
			C467.7,203.5,460.4,203.6,460.2,203.7z M312.6,209c3,1.2,3.7,1.7,5.2,3.1c3.3,3.5,4.3,6.9,4,14.2c-0.2,5.9-1,8.5-3.5,11.5
			c-3.1,3.7-6.1,5.1-11.4,5.1c-4.7,0-7.4-1-10-3.8c-3-3.4-4.4-7.1-4.6-12.5c-0.4-10.4,3.5-16.8,10.9-18.1
			C305.3,208,311.2,208.4,312.6,209z M524.1,209c4.3,1.6,7,4.3,8.3,8.6c1.3,4.1,1.3,11.3,0,15.2c-2.2,6.7-6.9,10.1-14.1,10.1
			c-4.7,0-7.4-1-10-3.8c-1-1.2-2.2-2.7-2.5-3.4c-3.7-8.1-2.8-18.3,2-23.7c1.4-1.6,4.4-3.1,7-3.6C516.6,208,522.5,208.5,524.1,209z"
			/>
	</g>
</g>
</svg>
